<svg width="14" height="16" viewBox="0 0 14 16" fill="none" xmlns="http://www.w3.org/2000/svg">
<path d="M12.7525 0.858478C12.1674 0.989698 11.5795 1.12153 11.3609 1.48279L9.66846 4.66355L0.581229 6.70147L0.213054 7.71778L7.16681 8.33803L5.987 11.0916L3.34983 11.683L2.68772 12.7653L4.59024 12.9601L4.80718 13.8452C4.90438 14.159 5.24552 14.3684 5.53671 14.3031L6.41576 14.106L7.43478 15.745L8.09689 14.6627L7.44605 12.0075L9.35539 9.71178L12.9986 15.7432L13.7332 14.9569L11.4912 5.81004L13.5501 2.85931C13.7715 2.49744 13.6271 1.9083 13.482 1.3164C13.4102 1.02321 13.0437 0.793176 12.7525 0.858478Z" fill="#1D2E5B"/>
</svg>
